# xmcd
#
# Track frame offsets:
#	150
#	17964
#	34531
#	47048
#	58807
#	73475
#	87923
#	100666
#	115658
#	131627
#
# Disc length: 1979 seconds
#
# Revision: 2
# Processed by: cddbd v1.4PL0 Copyright (c) Steve Scherf et al.
# Submitted via: dBpowerAMP V4.0
#
DISCID=8807b90a
DTITLE=Banda El Recodo - Lo Mejor De Mi Vida [CD2]
DYEAR=1900
DGENRE=Banda
TTITLE0=Lo Mejor De Mi Vida
TTITLE1=Le Pido A Dios
TTITLE2=Dale Mas Duro
TTITLE3=Que Me Perdone Dios
TTITLE4=Gracias Por Tu Amor
TTITLE5=Hola Mi Amor
TTITLE6=Las Penas Con Pan Son Buenas
TTITLE7=Recordandote
TTITLE8=Ya Te Olvide
TTITLE9=Cuando LLegaste Tu
EXTD=
EXTT0=
EXTT1=
EXTT2=
EXTT3=
EXTT4=
EXTT5=
EXTT6=
EXTT7=
EXTT8=
EXTT9=
PLAYORDER=
